<?xml version="1.0" standalone="no"?>
<!DOCTYPE svg PUBLIC "-//W3C//DTD SVG 20010904//EN"
 "http://www.w3.org/TR/2001/REC-SVG-20010904/DTD/svg10.dtd">
<svg version="1.0" xmlns="http://www.w3.org/2000/svg"
 width="642.000000pt" height="642.000000pt" viewBox="0 0 642.000000 642.000000"
 preserveAspectRatio="xMidYMid meet">
<metadata>
Created by potrace 1.14, written by Peter Selinger 2001-2017
</metadata>
<g transform="translate(0.000000,642.000000) scale(0.100000,-0.100000)"
fill="#000000" stroke="none">
<path d="M3138 6187 c-157 -59 -235 -179 -226 -347 11 -193 145 -320 335 -320
79 0 139 22 220 81 113 80 147 270 75 408 -42 80 -74 115 -141 153 -48 28 -67
32 -141 35 -55 2 -98 -2 -122 -10z"/>
<path d="M1460 5718 c-10 -47 -11 -237 -6 -818 2 -179 1 -346 -3 -370 -3 -25
-4 -65 -1 -90 4 -27 1 -56 -7 -72 -11 -22 -13 -246 -11 -1130 l3 -1103 167 0
168 0 2 1590 c1 875 5 1601 10 1614 8 24 10 24 100 17 104 -7 218 -25 233 -36
6 -4 33 -11 60 -15 129 -18 393 -114 540 -196 33 -19 93 -52 133 -74 39 -22
72 -44 72 -50 0 -5 -14 -21 -30 -34 -30 -23 -46 -39 -201 -206 -82 -87 -159
-186 -159 -202 0 -6 -7 -13 -15 -17 -8 -3 -15 -10 -15 -15 0 -6 -16 -36 -36
-67 -47 -74 -121 -241 -141 -318 -8 -34 -19 -65 -23 -71 -4 -5 -16 -53 -26
-105 -17 -87 -19 -170 -22 -957 l-3 -863 169 0 169 0 1 598 c2 689 9 1016 23
1087 20 97 49 208 64 239 45 100 78 166 101 206 75 126 246 320 364 413 36 28
67 54 68 59 2 5 12 13 23 18 15 9 28 2 72 -37 99 -88 117 -103 127 -103 5 0
10 -7 10 -15 0 -8 7 -15 15 -15 8 0 15 -7 15 -15 0 -8 7 -15 15 -15 9 0 19 -8
22 -17 4 -10 22 -34 40 -53 60 -65 130 -155 158 -205 16 -27 32 -52 37 -55 4
-3 19 -36 33 -73 13 -37 29 -75 34 -84 20 -41 43 -138 71 -308 8 -49 11 -269
9 -750 -1 -374 -1 -724 -1 -778 l2 -97 173 2 172 3 0 800 c0 877 -4 957 -56
1120 -16 49 -29 94 -29 100 0 21 -141 305 -152 305 -4 0 -8 5 -8 11 0 7 -16
34 -35 60 -19 27 -35 52 -35 55 0 15 -118 148 -233 263 -117 117 -123 125
-108 143 8 10 19 18 24 18 4 0 38 19 75 43 65 41 107 63 242 125 84 39 280
107 356 122 33 7 64 16 69 20 13 11 232 40 297 40 l48 0 0 -1615 0 -1615 163
2 162 3 1 320 c6 1227 6 3244 0 3253 -9 14 -358 15 -476 2 -118 -14 -300 -46
-380 -67 -30 -8 -73 -19 -95 -24 -110 -26 -385 -136 -466 -187 -20 -12 -39
-22 -42 -22 -10 0 -144 -83 -232 -144 l-86 -59 -57 39 c-31 21 -59 41 -62 44
-9 11 -73 54 -104 71 -17 9 -80 44 -141 78 -60 33 -114 61 -119 61 -4 0 -36
13 -70 29 -75 35 -284 104 -386 126 -79 18 -236 42 -360 55 -67 8 -479 14
-480 8z"/>
<path d="M3092 4242 c-10 -7 -13 -211 -12 -1047 0 -572 4 -1043 8 -1047 5 -5
76 -7 158 -6 l149 3 3 1046 2 1046 -37 6 c-61 9 -257 8 -271 -1z"/>
<path d="M1687 1574 c-4 -4 -7 -152 -7 -330 0 -362 -7 -334 80 -334 28 0 52 6
59 14 8 9 11 105 9 332 l-3 319 -65 3 c-36 2 -69 0 -73 -4z"/>
<path d="M2213 1573 c-10 -4 -13 -78 -13 -328 0 -249 3 -324 13 -327 10 -4 68
-3 125 1 9 1 12 42 12 172 0 112 3 168 10 164 6 -4 46 -61 90 -128 117 -181
129 -197 140 -197 5 0 35 39 66 87 72 111 155 223 166 223 5 0 8 -70 7 -156
-2 -176 -3 -174 72 -174 83 0 80 -17 77 345 l-3 320 -45 3 c-25 1 -50 -1 -56
-5 -9 -7 -91 -118 -154 -209 -59 -86 -125 -174 -129 -174 -4 0 -19 21 -35 48
-32 53 -220 305 -239 320 -14 11 -86 21 -104 15z"/>
<path d="M3360 1251 l0 -329 23 -6 c28 -7 76 -7 105 0 22 6 22 9 22 171 0 90
4 162 9 159 4 -3 53 -72 107 -153 54 -82 103 -151 109 -155 14 -10 31 10 130
157 48 72 93 136 99 144 8 11 12 -26 16 -150 l5 -164 69 -3 c38 -2 72 1 76 5
5 4 5 152 1 328 l-6 320 -29 3 c-67 8 -79 -4 -256 -265 -46 -68 -87 -123 -90
-123 -4 0 -47 57 -95 128 -49 70 -113 157 -142 195 -53 67 -54 67 -103 67
l-50 0 0 -329z"/>
<path d="M4366 1572 c-3 -5 53 -96 125 -202 l129 -194 0 -122 c0 -135 3 -142
60 -138 19 1 45 3 58 3 22 1 22 4 22 119 0 140 -3 134 148 353 57 83 102 157
100 167 -3 14 -16 18 -70 20 l-67 3 -88 -125 c-82 -117 -103 -141 -103 -116 0
9 -66 108 -129 193 l-35 47 -72 0 c-40 0 -75 -4 -78 -8z"/>
<path d="M4860 623 c-8 -2 -35 -31 -59 -64 -24 -33 -46 -57 -49 -54 -3 3 -22
29 -42 58 -33 47 -40 52 -78 55 -29 2 -42 -1 -42 -9 0 -7 28 -56 63 -108 60
-91 62 -97 67 -170 5 -71 7 -76 29 -79 37 -6 51 22 51 100 0 67 1 71 60 158
58 86 69 109 53 111 -5 0 -15 2 -23 3 -8 1 -22 1 -30 -1z"/>
<path d="M1554 607 c-3 -8 -6 -91 -7 -183 l-2 -169 95 -3 c120 -4 134 0 165
45 29 43 33 98 9 124 -13 15 -14 23 -3 52 16 46 3 93 -34 121 -23 17 -46 22
-123 24 -76 3 -95 1 -100 -11z m184 -94 c3 -22 0 -23 -52 -23 -53 0 -56 1 -56
26 0 24 2 25 53 22 45 -3 52 -6 55 -25z m3 -118 c13 -9 11 -39 -3 -53 -7 -7
-34 -12 -60 -12 -48 0 -48 0 -48 34 0 19 6 36 13 39 15 5 85 -1 98 -8z"/>
<path d="M2135 498 c-4 -68 -5 -150 -3 -183 l3 -60 125 0 125 0 3 29 c5 39
-10 46 -95 46 l-73 0 0 35 0 34 63 3 62 3 0 40 0 40 -62 3 c-59 3 -63 4 -63
27 0 23 3 24 83 27 l82 3 3 38 3 37 -124 0 -125 0 -7 -122z"/>
<path d="M2804 529 c-59 -118 -115 -259 -108 -270 3 -5 21 -9 40 -9 32 0 37 4
51 40 l16 40 82 0 83 0 16 -40 c11 -27 22 -40 35 -40 32 0 51 11 51 30 0 10
-35 91 -77 179 -77 159 -78 161 -110 161 -31 0 -35 -4 -79 -91z m106 -73 c11
-25 20 -47 20 -50 0 -4 -21 -6 -46 -6 -33 0 -45 4 -41 13 2 6 10 29 18 50 7
20 17 37 21 37 4 0 17 -20 28 -44z"/>
<path d="M3344 596 c-3 -14 -4 -73 -2 -133 3 -94 6 -112 26 -141 49 -68 161
-94 229 -52 58 35 73 82 73 225 l0 125 -34 0 c-42 0 -46 -11 -46 -145 0 -123
-11 -145 -71 -145 -29 0 -47 7 -64 25 -23 22 -25 31 -25 122 0 132 -4 143 -46
143 -27 0 -35 -5 -40 -24z"/>
<path d="M3970 585 l0 -35 55 0 54 0 3 -147 3 -148 26 -3 c51 -6 59 16 59 163
l0 134 58 3 c56 3 57 3 57 33 l0 30 -157 3 -158 3 0 -36z"/>
</g>
</svg>
